PathFileType	4	(X/Y/Z)	C:\Users\mayra\OneDrive - Universitat Pompeu Fabra\PhD_Mayra\OpenSim\aurel\ID_04_Walking_14.trc
DataRate	CameraRate	NumFrames	NumMarkers	Units	OrigDataRate	OrigDataStartFrame	OrigNumFrames
250.00	250.00	9	18	mm	250.00	326	1846
Frame#	Time	r.should			l.should			c7			r.asis			l.asis			sacrum			r.bar1			l.bar1			r.knee1			l.knee1			r.bar2			r.mall			l.bar2			l.mall			r.met			r.heel			l.heel			l.met			
		X1	Y1	Z1	X2	Y2	Z2	X3	Y3	Z3	X4	Y4	Z4	X5	Y5	Z5	X6	Y6	Z6	X7	Y7	Z7	X8	Y8	Z8	X9	Y9	Z9	X10	Y10	Z10	X11	Y11	Z11	X12	Y12	Z12	X13	Y13	Z13	X14	Y14	Z14	X15	Y15	Z15	X16	Y16	Z16	X17	Y17	Z17	X18	Y18	Z18	

1276	5.104000	592.529416	1220.161438	398.361444	592.662036	1234.044075	122.979708	508.847713	1293.363810	256.673753	681.522012	844.654441	384.924889	703.444064	842.456996	152.060628	449.991405	890.893221	234.542191	563.090086	774.816692	462.005705	625.147343	741.166234	68.590194	519.745886	435.231060	387.846470	734.140217	465.920717	141.643420	471.579015	383.287370	380.226016	274.760693	116.360486	331.992567	737.710178	391.877919	141.962796	788.104177	70.744582	170.843646	384.907275	41.278668	316.670418	227.946877	133.492067	284.244567	729.695797	54.944217	204.831898	917.996883	55.332474	201.915383	
1277	5.108000	597.283125	1220.636129	397.866786	597.558677	1234.400153	122.517116	513.541996	1293.861508	256.140232	686.488569	844.890714	384.133637	708.416283	843.252242	151.863664	454.669476	891.174197	234.228253	568.273127	774.600506	461.616695	629.971325	742.005765	68.316765	523.732483	434.800148	385.473311	738.298118	466.522694	140.891701	478.824764	383.637995	380.896866	278.087080	120.009497	332.628459	741.905451	392.311692	141.499102	788.600385	70.485458	170.530885	386.431396	40.503241	315.033823	232.326567	138.292298	284.622431	730.119228	55.192400	204.835236	917.467296	53.771701	200.402260	
1278	5.112000	602.027059	1221.171379	397.382140	602.448821	1234.836698	122.047618	518.250525	1294.361234	255.644292	691.407204	845.136762	383.317649	713.362992	844.129086	151.590332	459.336489	891.484678	233.950943	573.433638	774.348438	461.249113	634.883106	742.860615	68.023250	530.715644	434.672385	385.322154	742.563546	467.092901	140.212908	486.390799	383.961469	381.649792	281.854749	123.774707	333.275586	746.079206	392.732441	141.055375	788.776338	70.229471	170.283929	387.620777	40.245689	314.697385	237.087101	143.166944	284.993559	730.519295	55.518001	204.956710	916.879177	52.569225	198.834568	
1279	5.116000	607.645035	1222.075701	397.522002	607.316792	1235.350132	121.578313	522.984982	1294.897437	255.133212	696.229696	845.423222	382.524222	718.256116	845.095754	151.300699	463.957280	891.810417	233.714283	578.659713	774.102747	460.859001	639.892340	743.745029	67.681186	538.698256	434.569061	385.775417	746.953130	467.644215	139.653012	494.302541	384.272099	382.467836	286.003560	127.611637	333.938628	750.234425	393.156350	140.669048	788.952053	69.989026	170.124948	388.796091	40.072076	314.663649	242.336512	148.108140	285.386235	730.930090	55.882074	205.090269	918.271422	52.098028	199.070901	
1280	5.120000	613.537848	1223.089337	397.774696	612.155557	1235.922933	121.134877	527.705252	1295.487642	254.625916	701.010466	845.753431	381.717443	723.086417	846.040726	150.966004	468.537509	892.132759	233.509377	583.818913	773.816049	460.429788	644.885838	744.640827	67.279831	547.116995	434.428275	386.470348	751.368999	468.140155	139.215916	502.529442	384.554833	383.354932	290.575534	131.439999	334.610850	754.305899	393.554598	140.324831	789.676666	70.182189	170.156822	390.064716	39.876930	314.655483	247.979045	153.083369	285.804570	731.349230	56.150541	205.180615	918.985605	51.397379	199.173033	
1281	5.124000	617.720962	1223.524451	396.855175	616.984904	1236.548424	120.707437	532.368183	1296.069741	254.153848	705.789983	846.107721	380.878031	727.782249	846.938014	150.572419	473.104447	892.452478	233.340248	588.985860	773.523569	460.035205	649.872422	745.578587	66.795617	555.829048	434.240192	387.277395	755.701005	468.586355	138.880625	511.049390	384.772688	384.273529	295.543641	135.280147	335.284680	758.255243	393.918991	140.047088	790.204048	70.164420	170.232311	392.172515	39.927401	315.206259	254.095942	158.031315	286.211520	731.703043	56.327000	205.205083	919.572592	50.658233	199.624285	
1282	5.128000	624.087334	1224.793077	397.437274	621.794820	1237.219572	120.288879	537.032127	1296.673775	253.709465	710.485458	846.514821	380.038381	732.320070	847.782075	150.159657	477.662146	892.765880	233.191431	594.346941	773.409724	459.849387	654.865563	746.594429	66.297561	564.733624	434.006542	388.165057	760.030985	468.985736	138.641194	519.838214	384.948075	385.230094	300.920099	139.080554	335.973024	762.035847	394.222200	139.845088	790.629864	70.063412	170.332000	395.261228	40.287204	316.470414	260.716438	162.905514	286.614954	731.994748	56.465730	205.178291	920.107663	49.995739	200.344980	
1283	5.132000	629.299045	1225.662470	397.185475	626.568437	1237.941504	119.844392	541.717529	1297.276258	253.234684	715.167165	846.957684	379.208416	736.855984	848.589301	149.738520	482.197881	893.081903	233.061105	599.725127	773.551822	459.877610	660.380423	747.974575	65.538689	573.835850	433.692276	389.162004	764.210224	469.366312	138.463050	528.819621	385.080338	386.231333	306.691378	142.751992	336.654782	765.640020	394.478917	139.695480	791.036367	69.946200	170.467734	397.332430	40.044237	316.568047	267.673731	167.645335	287.041903	732.284307	56.596071	205.104128	920.592725	49.428284	201.151907	
1284	5.136000	634.195924	1226.438165	396.724641	631.344259	1238.653421	119.419396	546.407282	1297.857165	252.785802	719.826877	847.437501	378.383756	741.448283	849.369526	149.348468	486.651182	893.412292	232.906833	604.901075	773.365080	459.510833	666.586637	749.780595	64.482868	583.135843	433.314800	390.211701	767.768741	469.591379	138.480946	538.028479	385.118544	387.249202	312.776089	146.322668	337.327600	769.038022	394.679219	139.577761	791.458726	69.847815	170.632631	399.252355	39.583236	316.355735	274.926215	172.312900	287.440807	732.588947	56.767568	205.007300	921.015382	48.921332	201.874003	
